<?xml version="1.0" encoding="UTF-8"?>
<!DOCTYPE svg PUBLIC "-//W3C//DTD SVG 1.1//EN" "http://www.w3.org/Graphics/SVG/1.1/DTD/svg11.dtd">
<!-- Creator: CorelDRAW -->
<svg xmlns="http://www.w3.org/2000/svg" xml:space="preserve" width="42.3332mm" height="42.3332mm" version="1.1" style="shape-rendering:geometricPrecision; text-rendering:geometricPrecision; image-rendering:optimizeQuality; fill-rule:evenodd; clip-rule:evenodd"
viewBox="0 0 4233.32 4233.32"
 xmlns:xlink="http://www.w3.org/1999/xlink"
 xmlns:xodm="http://www.corel.com/coreldraw/odm/2003">
 <defs>
  <style type="text/css">
   <![CDATA[
    .str0 {stroke:#FDB201;stroke-width:20;stroke-miterlimit:22.9256}
    .fil5 {fill:#07436C}
    .fil2 {fill:#0D4572}
    .fil0 {fill:#0D4773}
    .fil4 {fill:#FDB101}
    .fil1 {fill:#FDB201}
    .fil6 {fill:#FDB201}
    .fil3 {fill:#FEB202}
    .fil7 {fill:#07436C;fill-rule:nonzero}
   ]]>
  </style>
 </defs>
 <g id="Layer_x0020_1">
  <metadata id="CorelCorpID_0Corel-Layer"/>
  <g id="_2243449430416">
   <g>
    <path class="fil0" d="M1916.07 2544.37c132.69,-38.99 160.15,160.92 58.91,193.06 -62.54,19.85 -112.81,-17.83 -123.67,-65.86 -11.89,-52.57 6.83,-110.17 64.76,-127.2zm-68.16 -45.5l-1.24 -32.28 -87.23 0.57 -0.14 483.67 90.35 -0.54 0.63 -174.3c108.85,97.46 270.32,32.95 270.09,-133.37 -0.19,-136.99 -95.68,-197.23 -187.9,-182.98 -32.48,5.02 -72.75,23.04 -84.56,39.23z"/>
    <path class="fil1" d="M2717.15 2542.07c60.72,-19.45 107.71,23.02 117.25,70.67 11.98,59.82 -13.98,111.73 -58.6,125.33 -128.57,39.18 -164.11,-162.21 -58.65,-196zm-62.41 -44.02l1.49 -31.1 -87.27 0.32 0.12 483.36 89.31 -0.66 0.47 -175.46c25.68,16.68 34.49,34.95 78.04,42.6 196.43,34.51 261.05,-247.8 106.05,-337.1 -26.05,-15.01 -61.16,-25.2 -100.61,-19.25 -56.77,8.56 -51.85,22.1 -87.6,37.29z"/>
    <path class="fil2" d="M983.63 2542.17c58.52,-13.98 101.85,27.33 108.68,78.99 8,60.51 -21.68,109.75 -69.26,119.71 -127.35,26.64 -153.16,-171.52 -39.42,-198.7zm104.24 233.93l-0.41 174.27 88.9 -0.25 0.55 -482.1 -87.56 -1.12 0.2 29.71c-53.52,-34.65 -111.36,-60.27 -180.83,-16.11 -47.48,30.19 -84.86,80.44 -84.78,158.07 0.11,117.39 74.16,193.32 181.69,179.12 45.28,-5.98 57,-22.72 82.24,-41.59z"/>
    <path class="fil0" d="M2425.4 2664.02c-27.86,132.86 -201.83,97.44 -180.29,-46.14 7.15,-47.63 54.95,-87.55 112.74,-76.07 47.15,9.36 80.53,60.33 67.55,122.21zm1.78 109.36l-0.29 37.34 88.06 -0.25 -0.51 -343.75 -87.05 0.6 -1.22 40.23c-30.17,-41.73 -113.67,-64.58 -178.12,-32.21 -51.85,26.04 -92.49,76.94 -96.33,158.6 -3.82,81.26 33.83,138.13 84.75,166.06 28.55,15.65 66.7,23.24 105.31,18.29 48.03,-6.15 57.98,-24.93 85.4,-44.91z"/>
    <path class="fil2" d="M546.88 2605.22c-1.34,-37.58 40.5,-71.85 82.82,-73.35 46.55,-1.66 87.9,30.82 83.73,73.92l-166.55 -0.57zm243.79 128.87c-19.88,-12.36 -46.21,-20.15 -71.15,-29.41 -24.89,19.6 -46.96,50.55 -103.9,37.4 -39,-9.01 -65.07,-38.03 -71,-80.65l255.13 0.7c39.8,-224.02 -282.28,-277.84 -333.84,-75.8 -11.87,46.5 -6.23,100.93 12.8,138.5 18.49,36.52 48.26,63.64 85.82,81.69 77.57,37.28 175.02,9.93 226.14,-72.43z"/>
    <path class="fil2" d="M1468.23 2771.37l-0.25 39.25 87.33 -0.22 -0.29 -343.6 -89.74 0.78c-4.51,124.73 27.85,268.9 -73.64,273.02 -104.2,4.23 -67.13,-127.86 -73.68,-272.61l-90.47 -0.74c-3.84,48.26 -0.96,108.18 -0.95,158.24 0,52.73 -2.57,106.39 21.23,143.69 39.92,62.54 138.36,72.31 197.54,21.28 10.96,-9.44 10.76,-14.52 22.92,-19.09z"/>
    <path class="fil3" d="M3347.94 2771.22l0 38.68 85.93 -0.24 -0.19 -342.01 -86.99 -0.29c-0.5,56.9 0.37,114.07 0.27,171.15 -0.09,56.42 -15.85,101.27 -71.49,102.89 -112.52,3.26 -59.89,-121.26 -74.38,-272.72l-87.99 -1.22c-1.82,51.88 -0.38,105.91 -0.47,158.03 -0.1,57.9 -6.6,101.75 19.16,143.67 32.32,52.57 117.41,69.55 170.18,36.89 14.95,-9.25 35.38,-30.02 45.97,-34.83z"/>
    <path class="fil4" d="M3542.87 2702.54l-71.28 28.08c57.37,143.16 338.93,110.65 297.97,-47.06 -20.5,-78.89 -114.67,-60.26 -178.1,-87.42 -38.34,-16.42 -25.58,-63.38 22.75,-68.63 50.68,-5.51 67.71,21.42 89.31,42.47 20.34,-4.31 51.18,-14.81 67.05,-22.57 -18.96,-31.7 -28.47,-50.08 -62.02,-68.1 -110.19,-59.21 -269.47,21.96 -215.83,129.92 36.96,74.41 147.52,45.97 185.68,80.13 15.81,14.15 22.64,60.28 -47.61,60.62 -45.72,0.22 -74.72,-15.67 -87.92,-47.44z"/>
    <polygon class="fil1" points="2971.45,2809.75 3061.05,2809.46 3061.01,2327.55 2972.68,2327.14 "/>
    <polygon class="fil2" points="1613.02,2810.59 1704.73,2810.32 1703.99,2467.71 1612.98,2467.28 "/>
    <path class="fil2" d="M1637.81 2319.04c-22.98,9.69 -39.37,39.65 -27.01,69.58 10.25,24.79 40.13,40.16 72.18,27.76 62.85,-24.31 28.79,-128.54 -45.17,-97.34z"/>
   </g>
   <g>
    <path class="fil5" d="M2304.74 1736.86c19.63,5.11 38.28,12.61 55.66,22.17l5.33 -2.86c11.87,-6.55 27.88,-16.57 37.2,-21.34 9.32,-4.77 11.94,-4.29 16.46,-1.33 4.5,2.94 10.91,8.38 20.81,18.16 9.89,9.78 23.28,23.93 30.65,32.65 7.38,8.72 8.74,12.02 8.07,16.67 -0.68,4.66 -3.39,10.67 -6.97,17.45 -3.59,6.79 -8.04,14.37 -13.61,23.24l-4.93 7.73c10.28,17.48 18.45,36.37 24.14,56.29 1.79,0.58 3.7,1.16 5.75,1.76 13,3.82 31.39,8.14 41.34,11.41 9.94,3.26 11.45,5.46 12.53,10.76 1.07,5.26 1.72,13.64 1.74,27.56 0.01,13.91 -0.62,33.38 -1.63,44.75 -1,11.38 -2.39,14.67 -6.16,17.47 -3.79,2.79 -9.97,5.1 -17.3,7.33 -7.35,2.22 -15.87,4.4 -26.09,6.68l-8.94 1.93c-5.63,21.28 -14.08,41.44 -24.91,60.02l2.72 5.4c6.25,12.03 15.87,28.28 20.41,37.72 4.53,9.43 3.99,12.04 0.92,16.49 -3.06,4.42 -8.65,10.69 -18.68,20.35 -10.02,9.64 -24.5,22.67 -33.4,29.82 -8.9,7.16 -12.24,8.44 -16.87,7.66 -4.64,-0.8 -10.58,-3.66 -17.27,-7.4 -6.69,-3.77 -14.17,-8.4 -22.89,-14.19l-7.61 -5.13c-16.29,9.03 -33.71,16.27 -52.01,21.41l-1.79 5.75c-3.88,12.99 -8.28,31.35 -11.58,41.29 -3.31,9.93 -5.52,11.42 -10.82,12.48 -5.27,1.05 -13.65,1.66 -27.57,1.62 -13.91,-0.04 -33.37,-0.76 -44.74,-1.82 -11.37,-1.05 -14.66,-2.45 -17.45,-6.23 -2.77,-3.8 -5.05,-9.99 -7.25,-17.33 -2.19,-7.37 -4.34,-15.9 -6.57,-26.12l-1.89 -8.95c-19.53,-5.26 -38.1,-12.9 -55.37,-22.57l-5.34 2.82c-11.92,6.46 -28,16.35 -37.36,21.06 -9.36,4.69 -11.97,4.19 -16.47,1.19 -4.48,-2.97 -10.84,-8.46 -20.67,-18.32 -9.82,-9.85 -23.09,-24.1 -30.39,-32.88 -7.31,-8.78 -8.65,-12.09 -7.95,-16.74 0.72,-4.64 3.47,-10.64 7.1,-17.39 3.65,-6.76 8.16,-14.32 13.79,-23.13l5 -7.69c-9.92,-17.18 -17.82,-35.68 -23.34,-55.18l-5.74 -1.77c-13,-3.85 -31.37,-8.21 -41.32,-11.49 -9.94,-3.3 -11.43,-5.5 -12.5,-10.8 -1.07,-5.27 -1.69,-13.64 -1.68,-27.57 0.01,-13.91 0.69,-33.37 1.72,-44.74 1.03,-11.38 2.42,-14.67 6.21,-17.46 3.78,-2.78 9.97,-5.08 17.31,-7.29 7.36,-2.21 15.89,-4.37 26.1,-6.63 2.91,-0.64 5.95,-1.3 8.96,-1.91 5.35,-20.03 13.19,-39.05 23.17,-56.69 -0.85,-1.69 -1.78,-3.48 -2.8,-5.37 -6.41,-11.95 -16.24,-28.07 -20.91,-37.44 -4.65,-9.39 -4.14,-11.99 -1.13,-16.48 2.99,-4.47 8.5,-10.8 18.41,-20.6 9.89,-9.78 24.19,-22.99 33,-30.26 8.81,-7.28 12.12,-8.6 16.77,-7.87 4.64,0.73 10.63,3.51 17.36,7.17 6.75,3.67 14.29,8.21 23.08,13.87l7.69 5.05c16.5,-9.44 34.21,-17.02 52.84,-22.43l1.74 -5.77c3.77,-13.02 8.02,-31.43 11.25,-41.39 3.22,-9.96 5.42,-11.47 10.7,-12.57 5.27,-1.1 13.64,-1.78 27.56,-1.85 13.91,-0.07 33.38,0.48 44.76,1.44 11.38,0.96 14.68,2.33 17.49,6.1 2.81,3.77 5.14,9.94 7.4,17.27 2.26,7.34 4.46,15.85 6.79,26.06l1.97 8.93zm-61.62 58.79c97.83,0 177.13,79.3 177.13,177.13 0,97.83 -79.3,177.13 -177.13,177.13 -97.83,0 -177.13,-79.3 -177.13,-177.13 0,-97.83 79.3,-177.13 177.13,-177.13z"/>
    <rect class="fil1 str0" x="2217.07" y="1875.1" width="52.07" height="195.48" rx="26.04" ry="33.68"/>
    <rect class="fil1 str0" transform="matrix(2.64845E-14 -0.777844 1 2.06008E-14 2145.36 1999.03)" width="67.35" height="195.48" rx="33.68" ry="33.68"/>
    <rect class="fil6" x="1943.86" y="1317.76" width="239.46" height="159.92"/>
    <path class="fil7" d="M1774.5 1368.91l133.7 0 0 -23.15c0,-17.35 7.11,-33.14 18.56,-44.61l0 -0.11c11.44,-11.44 27.29,-18.56 44.72,-18.56l182.16 0c17.35,0 33.15,7.12 44.61,18.56l0.11 0.11c11.45,11.47 18.56,27.26 18.56,44.61l0 23.15 134.42 0c21.98,0 41.99,9.02 56.5,23.51l0.11 0.11c14.49,14.51 23.51,34.52 23.51,56.5l0 258.45c-14.37,-10.61 -36.33,-26.55 -52.92,-36.25l0 -222.2c0,-7.5 -3.06,-14.32 -7.96,-19.24 -4.92,-4.9 -11.74,-7.96 -19.24,-7.96l-134.42 0 0 22.76c0,17.43 -7.12,33.28 -18.56,44.72l-0.11 0c-11.46,11.44 -27.26,18.56 -44.61,18.56l-182.16 0c-17.43,0 -33.28,-7.12 -44.72,-18.56 -11.44,-11.44 -18.56,-27.29 -18.56,-44.72l0 -22.76 -133.7 0c-7.45,0 -14.26,3.08 -19.19,8.01 -4.94,4.94 -8.01,11.74 -8.01,19.19l0 677.44c0,7.52 3.03,14.33 7.9,19.19l0.11 0.11c4.86,4.87 11.67,7.9 19.19,7.9l185.73 0c13.11,16.87 26.78,35.53 37.46,52.92l-223.19 0c-21.93,0 -41.95,-9 -56.5,-23.51l-0.11 -0.11c-14.51,-14.55 -23.51,-34.57 -23.51,-56.5l0 -677.44c0,-22.06 9.01,-42.11 23.51,-56.61 14.49,-14.49 34.55,-23.51 56.61,-23.51zm186.62 0l0 75.68c0,2.82 1.18,5.42 3.06,7.3 1.88,1.88 4.48,3.06 7.3,3.06l182.16 0c2.87,0 5.48,-1.16 7.35,-3.01 1.83,-1.93 3.01,-4.53 3.01,-7.35l0 -75.68 0 -23.15c0,-2.87 -1.16,-5.48 -3.01,-7.35 -1.87,-1.85 -4.48,-3.01 -7.35,-3.01l-182.16 0c-2.82,0 -5.42,1.18 -7.3,3.06 -1.9,1.82 -3.06,4.43 -3.06,7.3l0 23.15z"/>
    <rect class="fil6" x="1832.58" y="1572.98" width="113.67" height="119.78" rx="33.58" ry="33.58"/>
    <rect class="fil6" x="2006.95" y="1572.98" width="113.67" height="119.78" rx="33.58" ry="33.58"/>
    <rect class="fil6" x="1832.74" y="1748.65" width="113.67" height="119.78" rx="33.58" ry="33.58"/>
   </g>
  </g>
 </g>
</svg>
